<?xml version="1.0" encoding="UTF-8"?>
<svg xmlns="http://www.w3.org/2000/svg" xmlns:xlink="http://www.w3.org/1999/xlink" width="120.6pt" height="120.6pt" viewBox="0 0 120.6 120.6" version="1.1">
<g id="surface1">
<path style=" stroke:none;fill-rule:evenodd;fill:rgb(0%,44.700623%,17.259216%);fill-opacity:1;" d="M 107.65625 12.972656 C 119.695313 42.117188 120.679688 73.453125 107.65625 107.554688 C 78.515625 119.59375 47.179688 120.578125 13.074219 107.554688 C 1.039063 78.414063 0.0507813 47.082031 13.074219 12.972656 C 42.21875 0.9375 73.550781 -0.0507813 107.65625 12.972656 Z M 107.65625 12.972656 "/>
<path style=" stroke:none;fill-rule:evenodd;fill:rgb(100%,100%,100%);fill-opacity:1;" d="M 60.367188 10.660156 C 87.761719 10.660156 109.972656 32.867188 109.972656 60.265625 C 109.972656 87.660156 87.761719 109.871094 60.367188 109.871094 C 32.96875 109.871094 10.761719 87.660156 10.761719 60.265625 C 10.761719 32.867188 32.96875 10.660156 60.367188 10.660156 Z M 60.367188 10.660156 "/>
<path style=" stroke:none;fill-rule:evenodd;fill:rgb(0%,44.700623%,17.259216%);fill-opacity:1;" d="M 60.367188 21.996094 C 81.5 21.996094 98.632813 39.128906 98.632813 60.265625 C 98.632813 81.398438 81.5 98.53125 60.367188 98.53125 C 39.230469 98.53125 22.097656 81.398438 22.097656 60.265625 C 22.097656 39.128906 39.230469 21.996094 60.367188 21.996094 Z M 60.367188 21.996094 "/>
<path style=" stroke:none;fill-rule:evenodd;fill:rgb(10.594177%,9.812927%,9.423828%);fill-opacity:1;" d="M 16.664063 69.597656 C 17.113281 69.476563 17.578125 69.742188 17.699219 70.191406 C 17.820313 70.640625 17.550781 71.105469 17.101563 71.226563 C 16.652344 71.347656 16.1875 71.082031 16.070313 70.628906 C 15.949219 70.179688 16.214844 69.714844 16.664063 69.597656 Z M 16.664063 69.597656 "/>
<path style=" stroke:none;fill-rule:evenodd;fill:rgb(10.594177%,9.812927%,9.423828%);fill-opacity:1;" d="M 13.847656 72.414063 C 13.96875 71.964844 14.429688 71.695313 14.882813 71.816406 C 15.332031 71.9375 15.597656 72.398438 15.476563 72.851563 C 15.355469 73.300781 14.894531 73.566406 14.445313 73.445313 C 13.992188 73.328125 13.726563 72.863281 13.847656 72.414063 Z M 13.847656 72.414063 "/>
<path style=" stroke:none;fill-rule:evenodd;fill:rgb(10.594177%,9.812927%,9.423828%);fill-opacity:1;" d="M 14.878906 76.261719 C 14.550781 75.933594 14.550781 75.398438 14.878906 75.070313 C 15.207031 74.738281 15.742188 74.738281 16.070313 75.070313 C 16.402344 75.398438 16.402344 75.933594 16.070313 76.261719 C 15.742188 76.589844 15.207031 76.589844 14.878906 76.261719 Z M 14.878906 76.261719 "/>
<path style=" stroke:none;fill-rule:evenodd;fill:rgb(10.594177%,9.812927%,9.423828%);fill-opacity:1;" d="M 18.289063 75.664063 C 18.742188 75.542969 19.203125 75.808594 19.324219 76.261719 C 19.445313 76.714844 19.175781 77.171875 18.726563 77.292969 C 18.277344 77.414063 17.816406 77.148438 17.695313 76.695313 C 17.574219 76.246094 17.839844 75.785156 18.289063 75.664063 Z M 18.289063 75.664063 "/>
<path style=" stroke:none;fill-rule:evenodd;fill:rgb(10.594177%,9.812927%,9.423828%);fill-opacity:1;" d="M 19.914063 74.039063 C 20.035156 73.589844 20.5 73.320313 20.949219 73.441406 C 21.398438 73.5625 21.664063 74.027344 21.542969 74.476563 C 21.425781 74.925781 20.960938 75.191406 20.511719 75.070313 C 20.0625 74.957031 19.792969 74.488281 19.914063 74.039063 Z M 19.914063 74.039063 "/>
<path style=" stroke:none;fill-rule:evenodd;fill:rgb(10.594177%,9.812927%,9.423828%);fill-opacity:1;" d="M 19.320313 71.820313 C 18.992188 71.492188 18.992188 70.960938 19.320313 70.628906 C 19.648438 70.296875 20.183594 70.296875 20.511719 70.628906 C 20.84375 70.960938 20.84375 71.492188 20.511719 71.820313 C 20.183594 72.148438 19.648438 72.148438 19.320313 71.820313 Z M 19.320313 71.820313 "/>
<path style=" stroke:none;fill-rule:evenodd;fill:rgb(10.594177%,9.812927%,9.423828%);fill-opacity:1;" d="M 104.066406 69.597656 C 104.515625 69.714844 104.785156 70.179688 104.664063 70.628906 C 104.542969 71.082031 104.082031 71.347656 103.628906 71.226563 C 103.179688 71.105469 102.914063 70.640625 103.035156 70.191406 C 103.15625 69.742188 103.617188 69.476563 104.066406 69.597656 Z M 104.066406 69.597656 "/>
<path style=" stroke:none;fill-rule:evenodd;fill:rgb(10.594177%,9.812927%,9.423828%);fill-opacity:1;" d="M 100.21875 70.628906 C 100.546875 70.296875 101.082031 70.296875 101.410156 70.628906 C 101.742188 70.960938 101.742188 71.492188 101.410156 71.820313 C 101.082031 72.148438 100.546875 72.148438 100.21875 71.820313 C 99.890625 71.492188 99.890625 70.960938 100.21875 70.628906 Z M 100.21875 70.628906 "/>
<path style=" stroke:none;fill-rule:evenodd;fill:rgb(10.594177%,9.812927%,9.423828%);fill-opacity:1;" d="M 99.1875 74.476563 C 99.066406 74.027344 99.332031 73.5625 99.785156 73.441406 C 100.234375 73.320313 100.695313 73.589844 100.816406 74.039063 C 100.9375 74.488281 100.671875 74.957031 100.21875 75.070313 C 99.769531 75.191406 99.308594 74.925781 99.1875 74.476563 Z M 99.1875 74.476563 "/>
<path style=" stroke:none;fill-rule:evenodd;fill:rgb(10.594177%,9.812927%,9.423828%);fill-opacity:1;" d="M 102.441406 75.664063 C 102.890625 75.785156 103.15625 76.246094 103.039063 76.695313 C 102.917969 77.148438 102.453125 77.414063 102.003906 77.292969 C 101.554688 77.171875 101.289063 76.714844 101.40625 76.261719 C 101.527344 75.808594 101.992188 75.542969 102.441406 75.664063 Z M 102.441406 75.664063 "/>
<path style=" stroke:none;fill-rule:evenodd;fill:rgb(10.594177%,9.812927%,9.423828%);fill-opacity:1;" d="M 104.660156 75.070313 C 104.988281 74.738281 105.523438 74.738281 105.851563 75.070313 C 106.183594 75.398438 106.183594 75.933594 105.851563 76.261719 C 105.523438 76.589844 104.988281 76.589844 104.660156 76.261719 C 104.332031 75.933594 104.332031 75.398438 104.660156 75.070313 Z M 104.660156 75.070313 "/>
<path style=" stroke:none;fill-rule:evenodd;fill:rgb(10.594177%,9.812927%,9.423828%);fill-opacity:1;" d="M 105.253906 72.851563 C 105.132813 72.398438 105.402344 71.9375 105.851563 71.816406 C 106.300781 71.695313 106.765625 71.964844 106.882813 72.414063 C 107.003906 72.863281 106.738281 73.328125 106.289063 73.445313 C 105.835938 73.566406 105.375 73.300781 105.253906 72.851563 Z M 105.253906 72.851563 "/>
<path style=" stroke:none;fill-rule:evenodd;fill:rgb(10.594177%,9.812927%,9.423828%);fill-opacity:1;" d="M 19.820313 58.96875 L 13.203125 58.128906 L 13.78125 53.597656 C 13.894531 52.707031 13.984375 52.128906 14.050781 51.878906 C 14.222656 51.230469 14.492188 50.8125 14.855469 50.628906 C 15.21875 50.4375 15.832031 50.398438 16.691406 50.507813 C 17.507813 50.609375 18.070313 50.78125 18.375 51.011719 C 18.582031 51.167969 18.730469 51.371094 18.816406 51.617188 C 18.902344 51.863281 18.941406 52.195313 18.9375 52.601563 C 18.933594 52.894531 18.882813 53.429688 18.78125 54.214844 L 18.460938 56.753906 L 20.078125 56.957031 Z M 16.800781 56.539063 L 17.121094 54.019531 C 17.179688 53.5625 17.207031 53.285156 17.210938 53.179688 C 17.210938 53.082031 17.199219 52.984375 17.167969 52.898438 C 17.125 52.789063 17.050781 52.710938 16.945313 52.652344 C 16.839844 52.601563 16.667969 52.558594 16.433594 52.53125 C 16.199219 52.503906 16.023438 52.503906 15.90625 52.535156 C 15.792969 52.570313 15.703125 52.648438 15.636719 52.761719 C 15.589844 52.847656 15.523438 53.195313 15.4375 53.804688 L 15.117188 56.328125 Z M 15.367188 45.558594 L 16.203125 43.710938 L 18.996094 44.972656 C 19.644531 45.253906 20.058594 45.414063 20.246094 45.460938 C 20.503906 45.515625 20.730469 45.433594 20.921875 45.210938 C 21.117188 44.980469 21.390625 44.472656 21.746094 43.679688 C 22.039063 43.039063 22.21875 42.589844 22.292969 42.320313 C 22.371094 42.054688 22.375 41.84375 22.3125 41.691406 C 22.265625 41.589844 22.195313 41.496094 22.097656 41.417969 C 22 41.339844 21.820313 41.234375 21.5625 41.097656 C 21.292969 40.964844 21.070313 40.851563 20.898438 40.769531 L 18.101563 39.507813 L 18.9375 37.65625 L 21.734375 38.921875 C 22.695313 39.382813 23.316406 39.703125 23.597656 39.878906 C 24.074219 40.179688 24.335938 40.59375 24.386719 41.113281 C 24.417969 41.410156 24.359375 41.785156 24.214844 42.230469 C 24.070313 42.679688 23.777344 43.394531 23.335938 44.371094 C 23.003906 45.101563 22.734375 45.664063 22.527344 46.050781 C 22.320313 46.433594 22.117188 46.757813 21.914063 47.023438 C 21.464844 47.601563 20.902344 47.804688 20.222656 47.632813 C 19.964844 47.5625 19.734375 47.492188 19.535156 47.414063 C 19.332031 47.339844 18.875 47.136719 18.160156 46.820313 Z M 26.625 37.839844 L 21.382813 33.71875 L 24.203125 30.128906 C 24.761719 29.421875 25.136719 28.972656 25.324219 28.789063 C 25.800781 28.328125 26.246094 28.105469 26.652344 28.128906 C 27.0625 28.15625 27.609375 28.4375 28.289063 28.972656 C 28.9375 29.484375 29.332031 29.917969 29.476563 30.269531 C 29.574219 30.511719 29.59375 30.761719 29.542969 31.019531 C 29.488281 31.273438 29.355469 31.582031 29.140625 31.925781 C 28.988281 32.171875 28.664063 32.605469 28.175781 33.230469 L 26.597656 35.238281 L 27.882813 36.246094 Z M 25.285156 34.210938 L 26.855469 32.214844 C 27.136719 31.84375 27.304688 31.621094 27.359375 31.53125 C 27.414063 31.445313 27.453125 31.359375 27.46875 31.269531 C 27.488281 31.152344 27.46875 31.046875 27.40625 30.945313 C 27.339844 30.847656 27.214844 30.722656 27.027344 30.582031 C 26.84375 30.429688 26.691406 30.34375 26.574219 30.3125 C 26.457031 30.28125 26.339844 30.300781 26.226563 30.367188 C 26.140625 30.417969 25.90625 30.679688 25.519531 31.160156 L 23.949219 33.15625 Z M 29.789063 24.269531 L 31.445313 23.089844 L 33.222656 25.589844 C 33.640625 26.160156 33.917969 26.507813 34.054688 26.636719 C 34.25 26.820313 34.488281 26.863281 34.769531 26.761719 C 35.046875 26.664063 35.539063 26.363281 36.25 25.859375 C 36.824219 25.457031 37.210938 25.152344 37.40625 24.964844 C 37.605469 24.769531 37.714844 24.589844 37.738281 24.429688 C 37.75 24.316406 37.734375 24.203125 37.691406 24.089844 C 37.644531 23.96875 37.546875 23.785156 37.386719 23.535156 C 37.226563 23.28125 37.089844 23.078125 36.980469 22.917969 L 35.203125 20.421875 L 36.855469 19.242188 L 38.632813 21.742188 C 39.230469 22.628906 39.609375 23.214844 39.761719 23.507813 C 40.019531 24.011719 40.039063 24.503906 39.820313 24.972656 C 39.699219 25.246094 39.460938 25.539063 39.109375 25.851563 C 38.757813 26.167969 38.144531 26.632813 37.269531 27.253906 C 36.613281 27.722656 36.101563 28.070313 35.726563 28.300781 C 35.355469 28.527344 35.015625 28.710938 34.710938 28.835938 C 34.027344 29.105469 33.441406 29.003906 32.941406 28.507813 C 32.75 28.316406 32.589844 28.140625 32.457031 27.96875 C 32.320313 27.800781 32.027344 27.398438 31.566406 26.765625 Z M 41.328125 17.023438 L 43.253906 16.371094 L 44.027344 18.664063 L 45.082031 18.308594 L 46.792969 15.132813 L 49.734375 14.136719 L 47.148438 18.511719 L 52.195313 20.386719 L 49.269531 21.378906 L 45.628906 19.921875 L 44.574219 20.273438 L 45.390625 22.691406 L 43.46875 23.339844 Z M 57.269531 13.121094 L 59.296875 13.171875 L 59.234375 15.589844 L 60.347656 15.617188 L 63.046875 13.226563 L 66.152344 13.304688 L 62.21875 16.519531 L 66.308594 20.019531 L 63.222656 19.941406 L 60.304688 17.316406 L 59.195313 17.289063 L 59.128906 19.839844 L 57.097656 19.789063 Z M 70.804688 14.113281 L 72.730469 14.765625 L 71.746094 17.671875 C 71.53125 18.339844 71.410156 18.769531 71.386719 18.964844 C 71.351563 19.222656 71.457031 19.441406 71.703125 19.609375 C 71.945313 19.777344 72.480469 20.003906 73.300781 20.277344 C 73.96875 20.503906 74.4375 20.640625 74.710938 20.691406 C 74.980469 20.738281 75.191406 20.722656 75.335938 20.648438 C 75.433594 20.589844 75.519531 20.511719 75.585938 20.40625 C 75.652344 20.300781 75.742188 20.113281 75.851563 19.839844 C 75.964844 19.558594 76.050781 19.328125 76.113281 19.148438 L 77.097656 16.242188 L 79.019531 16.890625 L 78.035156 19.796875 C 77.671875 20.796875 77.417969 21.453125 77.269531 21.746094 C 77.011719 22.253906 76.628906 22.554688 76.113281 22.652344 C 75.824219 22.714844 75.445313 22.695313 74.988281 22.59375 C 74.523438 22.492188 73.785156 22.269531 72.773438 21.925781 C 72.007813 21.667969 71.425781 21.457031 71.019531 21.289063 C 70.617188 21.121094 70.273438 20.953125 69.992188 20.773438 C 69.371094 20.382813 69.113281 19.84375 69.21875 19.152344 C 69.261719 18.886719 69.3125 18.652344 69.371094 18.445313 C 69.425781 18.234375 69.578125 17.761719 69.824219 17.019531 Z M 87.019531 21.460938 L 88.730469 22.550781 L 86.574219 25.910156 C 86.238281 26.4375 85.960938 26.8125 85.75 27.03125 C 85.539063 27.246094 85.3125 27.390625 85.0625 27.464844 C 84.746094 27.558594 84.382813 27.53125 83.980469 27.382813 C 83.578125 27.234375 82.984375 26.910156 82.199219 26.40625 C 81.257813 25.800781 80.605469 25.3125 80.246094 24.941406 C 79.816406 24.488281 79.703125 23.984375 79.914063 23.425781 C 80.003906 23.1875 80.160156 22.886719 80.386719 22.535156 C 80.488281 22.382813 80.617188 22.1875 80.773438 21.957031 L 82.484375 23.050781 C 82.285156 23.359375 82.164063 23.570313 82.113281 23.6875 C 82.0625 23.804688 82.046875 23.910156 82.066406 24.003906 C 82.117188 24.214844 82.429688 24.503906 83.007813 24.871094 C 83.617188 25.261719 84.035156 25.441406 84.265625 25.410156 C 84.363281 25.394531 84.453125 25.34375 84.535156 25.265625 C 84.613281 25.183594 84.734375 25.023438 84.890625 24.777344 Z M 92.226563 35.367188 L 92.707031 34.195313 L 89.820313 30.863281 L 88.59375 31.171875 L 87.074219 29.417969 L 94.429688 27.726563 L 96.496094 30.109375 L 93.734375 37.109375 Z M 93.34375 32.707031 L 94.414063 30.078125 L 94.148438 29.769531 L 91.398438 30.457031 Z M 101.21875 36.386719 L 102.683594 39.628906 L 99.585938 44.863281 L 99.671875 45.054688 L 104.191406 42.960938 L 105.039063 44.839844 L 98.964844 47.589844 L 97.507813 44.371094 L 100.601563 39.128906 L 100.511719 38.921875 L 95.992188 41.015625 L 95.140625 39.132813 Z M 104.101563 54.089844 L 104.6875 58.695313 C 104.582031 58.714844 104.519531 58.722656 104.507813 58.726563 C 103.574219 58.84375 102.867188 58.910156 102.390625 58.921875 C 101.617188 58.9375 101.101563 58.566406 100.839844 57.800781 C 100.730469 57.46875 100.632813 57.089844 100.554688 56.652344 C 100.472656 56.21875 100.375 55.554688 100.261719 54.65625 C 100.117188 53.519531 100.046875 52.714844 100.050781 52.234375 C 100.050781 51.757813 100.125 51.367188 100.273438 51.070313 C 100.375 50.867188 100.519531 50.707031 100.703125 50.582031 C 100.886719 50.457031 101.140625 50.351563 101.457031 50.269531 C 101.753906 50.195313 102.34375 50.097656 103.234375 49.984375 C 103.835938 49.910156 104.292969 49.867188 104.605469 49.859375 C 104.914063 49.855469 105.199219 49.882813 105.453125 49.945313 C 105.988281 50.070313 106.347656 50.4375 106.535156 51.042969 C 106.742188 51.707031 106.933594 52.738281 107.113281 54.140625 C 107.21875 54.976563 107.28125 55.636719 107.300781 56.128906 C 107.320313 56.617188 107.300781 57.023438 107.246094 57.347656 C 107.152344 57.878906 106.851563 58.222656 106.335938 58.398438 C 106.085938 58.484375 105.730469 58.554688 105.273438 58.617188 L 105.015625 56.601563 C 105.199219 56.578125 105.324219 56.546875 105.386719 56.519531 C 105.445313 56.492188 105.5 56.445313 105.535156 56.378906 C 105.597656 56.257813 105.617188 56.011719 105.59375 55.652344 C 105.566406 55.3125 105.515625 54.820313 105.433594 54.175781 C 105.34375 53.480469 105.265625 52.984375 105.195313 52.691406 C 105.125 52.398438 105.039063 52.203125 104.941406 52.101563 C 104.835938 52.003906 104.679688 51.953125 104.46875 51.933594 C 104.261719 51.921875 103.910156 51.945313 103.414063 52.007813 C 102.855469 52.085938 102.46875 52.148438 102.253906 52.214844 C 102.039063 52.28125 101.894531 52.378906 101.816406 52.496094 C 101.746094 52.617188 101.710938 52.765625 101.714844 52.945313 C 101.71875 53.128906 101.773438 53.679688 101.878906 54.617188 C 102.003906 55.53125 102.082031 56.089844 102.117188 56.28125 C 102.15625 56.476563 102.207031 56.628906 102.269531 56.742188 C 102.320313 56.839844 102.398438 56.894531 102.5 56.921875 C 102.601563 56.953125 102.746094 56.957031 102.933594 56.929688 C 102.964844 56.925781 103.027344 56.917969 103.117188 56.90625 L 102.78125 54.257813 Z M 104.101563 54.089844 "/>
<path style=" stroke:none;fill-rule:evenodd;fill:rgb(10.594177%,9.812927%,9.423828%);fill-opacity:1;" d="M 27.960938 90.992188 L 29.285156 92.535156 C 29.046875 92.757813 28.890625 92.898438 28.820313 92.964844 C 28.429688 93.292969 28.074219 93.496094 27.757813 93.570313 C 27.402344 93.652344 27.015625 93.542969 26.609375 93.246094 C 26.199219 92.953125 25.601563 92.339844 24.816406 91.425781 C 23.992188 90.460938 23.421875 89.753906 23.109375 89.316406 C 22.792969 88.878906 22.601563 88.503906 22.53125 88.207031 C 22.46875 87.9375 22.480469 87.683594 22.5625 87.460938 C 22.648438 87.226563 22.820313 86.972656 23.082031 86.707031 C 23.292969 86.484375 23.699219 86.117188 24.300781 85.601563 C 24.886719 85.101563 25.320313 84.753906 25.597656 84.550781 C 25.875 84.347656 26.113281 84.21875 26.3125 84.160156 C 26.753906 84.027344 27.207031 84.136719 27.671875 84.484375 C 28.136719 84.835938 28.929688 85.660156 30.046875 86.96875 C 30.605469 87.621094 30.996094 88.109375 31.222656 88.429688 C 31.445313 88.753906 31.59375 89.039063 31.664063 89.285156 C 31.75 89.605469 31.726563 89.90625 31.59375 90.183594 C 31.460938 90.464844 31.1875 90.777344 30.769531 91.132813 C 30.75 91.152344 30.664063 91.222656 30.511719 91.339844 L 29.191406 89.800781 C 29.351563 89.648438 29.453125 89.542969 29.5 89.480469 C 29.546875 89.417969 29.566406 89.351563 29.570313 89.277344 C 29.570313 89.171875 29.476563 88.992188 29.296875 88.730469 C 29.113281 88.46875 28.816406 88.097656 28.398438 87.609375 C 27.984375 87.128906 27.6875 86.800781 27.507813 86.632813 C 27.328125 86.46875 27.175781 86.371094 27.046875 86.347656 C 26.894531 86.316406 26.714844 86.363281 26.511719 86.476563 C 26.304688 86.589844 26.007813 86.8125 25.625 87.140625 C 25.242188 87.46875 24.988281 87.714844 24.859375 87.878906 C 24.730469 88.046875 24.667969 88.210938 24.679688 88.355469 C 24.683594 88.503906 24.757813 88.675781 24.898438 88.886719 C 25.039063 89.09375 25.316406 89.4375 25.726563 89.917969 C 26.230469 90.507813 26.578125 90.894531 26.765625 91.078125 C 26.957031 91.253906 27.113281 91.347656 27.238281 91.363281 C 27.402344 91.378906 27.644531 91.257813 27.960938 90.992188 Z M 34.140625 91.214844 L 35.839844 92.503906 L 31.808594 97.8125 L 30.109375 96.527344 Z M 37.808594 94.265625 L 39.621094 95.179688 L 38.53125 97.339844 L 39.527344 97.839844 L 42.988281 96.835938 L 45.761719 98.226563 L 40.832031 99.457031 L 43.035156 104.367188 L 40.28125 102.980469 L 38.761719 99.359375 L 37.769531 98.859375 L 36.621094 101.136719 L 34.808594 100.222656 Z M 53.097656 107.003906 L 52.796875 105.769531 L 48.503906 104.765625 L 47.691406 105.738281 L 45.429688 105.214844 L 50.390625 99.519531 L 53.464844 100.234375 L 55.339844 107.523438 Z M 52.4375 104.1875 L 51.761719 101.429688 L 51.367188 101.339844 L 49.539063 103.507813 Z M 58.078125 101.046875 L 61.75 100.765625 L 64.058594 104.929688 L 65.707031 100.464844 L 69.355469 100.183594 L 69.863281 106.839844 L 67.871094 106.988281 L 67.535156 102.003906 L 67.207031 102.023438 L 65.078125 107.203125 L 63.398438 107.332031 L 60.511719 102.535156 L 60.15625 102.5625 L 60.582031 107.542969 L 58.585938 107.695313 Z M 73.566406 105.714844 L 71.167969 99.492188 L 75.429688 97.851563 C 76.273438 97.527344 76.824219 97.335938 77.078125 97.273438 C 77.726563 97.117188 78.21875 97.15625 78.558594 97.386719 C 78.894531 97.617188 79.222656 98.136719 79.53125 98.945313 C 79.828125 99.714844 79.949219 100.289063 79.886719 100.667969 C 79.847656 100.925781 79.738281 101.152344 79.5625 101.34375 C 79.386719 101.539063 79.117188 101.730469 78.753906 101.917969 C 78.496094 102.050781 77.996094 102.261719 77.257813 102.546875 L 74.875 103.464844 L 75.460938 104.984375 Z M 74.277344 101.90625 L 76.644531 100.992188 C 77.074219 100.828125 77.332031 100.71875 77.425781 100.671875 C 77.515625 100.628906 77.59375 100.570313 77.65625 100.503906 C 77.730469 100.410156 77.769531 100.308594 77.761719 100.1875 C 77.757813 100.070313 77.714844 99.902344 77.628906 99.679688 C 77.542969 99.460938 77.457031 99.304688 77.375 99.21875 C 77.289063 99.132813 77.179688 99.089844 77.046875 99.089844 C 76.949219 99.089844 76.613281 99.195313 76.03125 99.40625 L 73.664063 100.320313 Z M 80.328125 95.804688 L 86.316406 91.492188 L 87.234375 92.765625 L 82.867188 95.910156 L 83.429688 96.6875 L 87.578125 93.707031 L 88.429688 94.886719 L 84.28125 97.871094 L 84.914063 98.753906 L 89.3125 95.585938 L 90.246094 96.882813 L 84.226563 101.214844 Z M 87.972656 90.207031 L 89.320313 88.683594 L 91.132813 90.285156 L 91.871094 89.457031 L 91.773438 85.847656 L 93.832031 83.523438 L 93.761719 88.601563 L 99.074219 87.722656 L 97.03125 90.035156 L 93.144531 90.582031 L 92.40625 91.414063 L 94.3125 93.101563 L 92.96875 94.621094 Z M 87.972656 90.207031 "/>
<path style=" stroke:none;fill-rule:evenodd;fill:rgb(100%,92.576599%,0%);fill-opacity:1;" d="M 59.183594 34.773438 C 59.484375 32.339844 61.085938 30.328125 62.789063 28.667969 C 62.605469 29.839844 62.488281 31.039063 62.632813 32.222656 C 62.839844 34.785156 63.839844 37.183594 64.851563 39.519531 C 65.335938 40.714844 65.90625 41.90625 66.046875 43.207031 C 66.121094 43.832031 65.980469 44.46875 65.667969 45.007813 C 66.222656 45.363281 66.691406 45.933594 66.730469 46.613281 C 66.796875 47.222656 66.628906 47.828125 66.375 48.378906 C 66.898438 48.832031 67.390625 49.4375 67.347656 50.171875 C 67.390625 50.714844 67.140625 51.195313 67.003906 51.695313 C 67.398438 53.253906 67.457031 54.898438 67.132813 56.472656 C 66.867188 57.902344 66.289063 59.246094 65.71875 60.578125 C 65.542969 61.972656 65.257813 63.363281 64.726563 64.675781 C 63.9375 66.695313 62.636719 68.472656 61.15625 70.042969 C 61.019531 70.152344 61.183594 70.292969 61.242188 70.398438 C 61.445313 70.714844 61.777344 70.894531 62.105469 71.058594 C 62.160156 71.433594 62.234375 71.820313 62.460938 72.128906 C 62.703125 72.445313 63.117188 72.539063 63.410156 72.792969 C 63.597656 73.089844 63.578125 73.464844 63.558594 73.796875 C 63.488281 74.589844 63.277344 75.355469 63.125 76.132813 C 62.996094 76.773438 62.804688 77.414063 62.832031 78.078125 C 63.0625 79.710938 63.273438 81.40625 62.855469 83.027344 C 62.625 83.953125 61.953125 84.835938 60.976563 85.023438 C 60.101563 85.179688 59.167969 85.175781 58.324219 84.859375 C 57.675781 84.605469 57.0625 84.152344 56.78125 83.503906 C 56.644531 83.203125 56.601563 82.800781 56.835938 82.539063 C 56.980469 82.371094 57.207031 82.3125 57.417969 82.292969 C 58.253906 82.230469 59.089844 82.105469 59.929688 82.054688 C 60 81.605469 59.980469 81.148438 60.015625 80.703125 C 60.117188 79.300781 60.402344 77.929688 60.65625 76.558594 C 60 76.175781 59.890625 75.351563 59.9375 74.660156 C 59.574219 74.511719 59.199219 74.335938 58.953125 74.007813 C 58.714844 73.691406 58.652344 73.285156 58.585938 72.902344 C 57.757813 72.917969 56.933594 73.003906 56.105469 73.03125 C 57.132813 72.058594 58.074219 70.984375 58.789063 69.753906 C 59.929688 67.847656 60.550781 65.664063 60.773438 63.464844 C 61.097656 59.820313 60.503906 56.152344 59.476563 52.667969 C 58.625 51.386719 57.917969 49.980469 57.652344 48.457031 C 57.253906 46.355469 57.640625 44.222656 58.097656 42.171875 C 58.34375 41.082031 58.644531 40.003906 58.925781 38.921875 C 59.28125 37.5625 58.960938 36.148438 59.183594 34.773438 Z M 64.359375 43.019531 C 63.683594 43.300781 63.714844 44.441406 64.421875 44.667969 C 64.945313 44.859375 65.449219 44.304688 65.402344 43.796875 C 65.410156 43.289063 64.863281 42.773438 64.359375 43.019531 Z M 64.871094 46.269531 C 64.210938 46.539063 64.210938 47.621094 64.863281 47.898438 C 65.367188 48.140625 65.914063 47.632813 65.90625 47.128906 C 65.964844 46.589844 65.40625 46.015625 64.871094 46.269531 Z M 65.480469 49.3125 C 64.789063 49.589844 64.820313 50.738281 65.535156 50.964844 C 66.066406 51.152344 66.566406 50.59375 66.511719 50.082031 C 66.519531 49.582031 65.976563 49.078125 65.480469 49.3125 Z M 65.582031 52.257813 C 64.917969 52.53125 64.917969 53.613281 65.578125 53.890625 C 66.082031 54.132813 66.632813 53.613281 66.609375 53.105469 C 66.671875 52.582031 66.109375 52.015625 65.582031 52.257813 Z M 65.582031 52.257813 "/>
<path style=" stroke:none;fill-rule:evenodd;fill:rgb(100%,92.576599%,0%);fill-opacity:1;" d="M 41.867188 38.476563 C 43.144531 37.351563 44.753906 36.570313 46.460938 36.40625 C 47.171875 36.3125 47.890625 36.320313 48.605469 36.371094 C 48.351563 36.636719 48.039063 36.835938 47.789063 37.097656 C 47.109375 37.761719 46.65625 38.617188 46.339844 39.507813 C 45.964844 40.484375 45.644531 41.539063 44.875 42.292969 C 42.875 44.378906 40.882813 46.480469 38.882813 48.566406 C 36.96875 50.414063 35.789063 52.941406 35.371094 55.550781 C 35.277344 55.976563 35.1875 56.464844 35.410156 56.859375 C 35.539063 57.109375 35.929688 57.214844 36.117188 56.96875 C 37.039063 55.902344 37.914063 54.78125 38.574219 53.53125 C 39.339844 51.53125 40.40625 49.605469 41.953125 48.097656 C 43.304688 46.746094 45.003906 45.789063 46.789063 45.128906 C 46.648438 45.445313 46.46875 45.742188 46.332031 46.0625 C 45.882813 47.09375 45.664063 48.203125 45.375 49.28125 C 45.164063 50.019531 44.945313 50.792969 44.449219 51.398438 C 43.355469 52.484375 42.023438 53.320313 40.621094 53.953125 C 39.859375 54.238281 39.253906 54.808594 38.667969 55.355469 C 37.855469 56.183594 37.171875 57.128906 36.566406 58.121094 C 36.292969 58.535156 36.160156 59.019531 36.007813 59.484375 C 35.582031 60.835938 35.425781 62.246094 35.347656 63.652344 C 35.34375 63.964844 35.210938 64.304688 35.382813 64.597656 C 35.9375 65.8125 36.644531 67.027344 37.746094 67.820313 C 37.984375 67.96875 38.351563 68.210938 38.597656 67.964844 C 39.15625 66.453125 38.867188 64.808594 38.789063 63.242188 C 38.714844 62.367188 38.730469 61.480469 38.867188 60.613281 C 39.132813 59.242188 40 58.097656 40.917969 57.09375 C 41.566406 56.359375 42.296875 55.703125 42.929688 54.953125 C 43.035156 54.828125 43.152344 54.714844 43.28125 54.617188 C 43.222656 57.132813 43.007813 59.644531 42.589844 62.128906 C 42.355469 63.707031 41.980469 65.28125 41.183594 66.675781 C 40.683594 67.597656 39.984375 68.386719 39.226563 69.101563 C 38.9375 71.445313 39.074219 73.863281 39.800781 76.117188 C 39.980469 76.621094 40.144531 77.148438 40.460938 77.589844 C 41.019531 78.433594 41.617188 79.257813 42.320313 79.988281 C 42.585938 80.253906 42.855469 80.546875 43.230469 80.652344 C 43.574219 80.703125 43.605469 80.246094 43.582031 80.003906 C 43.191406 78.632813 42.457031 77.394531 42.050781 76.03125 C 41.746094 75.089844 41.59375 74.089844 41.6875 73.097656 C 41.917969 71.378906 43.269531 70.089844 43.671875 68.421875 C 43.78125 67.996094 43.777344 67.550781 43.753906 67.113281 C 44.707031 68.238281 45.515625 69.546875 45.785156 71.019531 C 46 72.039063 45.933594 73.089844 45.921875 74.117188 C 45.914063 75.558594 45.617188 76.976563 45.257813 78.367188 C 45.0625 79.175781 44.824219 79.980469 44.738281 80.8125 C 44.710938 81.222656 44.746094 81.652344 44.914063 82.035156 C 45.046875 82.359375 45.332031 82.585938 45.507813 82.882813 C 46.050781 83.738281 46.476563 84.675781 46.675781 85.671875 C 46.714844 86.171875 47.300781 86.285156 47.695313 86.378906 C 48.925781 86.550781 50.1875 86.40625 51.390625 86.128906 C 51.035156 84.757813 49.910156 83.835938 49.097656 82.734375 C 48.566406 82.003906 48.15625 81.148438 48.074219 80.238281 C 47.941406 78.855469 48.441406 77.515625 48.421875 76.136719 C 48.410156 75.371094 48.273438 74.617188 48.105469 73.878906 C 49.753906 74.828125 51.003906 76.355469 51.859375 78.039063 C 52.570313 79.484375 53.140625 81.023438 53.394531 82.617188 C 53.597656 83.832031 53.210938 85.03125 53.308594 86.242188 C 54.753906 87.0625 56.292969 87.707031 57.84375 88.292969 C 58.585938 88.558594 59.304688 88.898438 60.0625 89.109375 C 60.6875 88.9375 61.28125 88.652344 61.894531 88.433594 C 63.570313 87.816406 65.214844 87.101563 66.796875 86.269531 C 66.875 85.460938 66.703125 84.65625 66.664063 83.847656 C 66.570313 82.289063 67.113281 80.792969 67.648438 79.359375 C 68.371094 77.542969 69.433594 75.808594 70.972656 74.582031 C 71.300781 74.332031 71.625 74.058594 72.007813 73.894531 C 71.660156 75.148438 71.597656 76.472656 71.828125 77.753906 C 72.050781 79.015625 72.238281 80.378906 71.679688 81.578125 C 70.992188 83.289063 69.191406 84.304688 68.71875 86.128906 C 69.46875 86.328125 70.246094 86.410156 71.019531 86.445313 C 71.671875 86.464844 72.34375 86.464844 72.957031 86.21875 C 73.128906 86.136719 73.34375 86.035156 73.390625 85.832031 C 73.652344 84.542969 74.203125 83.300781 75.046875 82.289063 C 75.453125 81.710938 75.382813 80.953125 75.296875 80.285156 C 74.921875 78.429688 74.289063 76.617188 74.203125 74.714844 C 74.167969 73.390625 74.070313 72.050781 74.371094 70.753906 C 74.695313 69.390625 75.441406 68.160156 76.363281 67.117188 C 76.21875 68.15625 76.605469 69.167969 77.109375 70.054688 C 77.664063 71.085938 78.347656 72.105469 78.441406 73.300781 C 78.5 74.480469 78.230469 75.648438 77.808594 76.742188 C 77.417969 77.792969 76.890625 78.792969 76.5625 79.867188 C 76.488281 80.121094 76.496094 80.4375 76.695313 80.632813 C 76.980469 80.710938 77.222656 80.484375 77.433594 80.328125 C 78.097656 79.730469 78.636719 79.015625 79.160156 78.300781 C 79.492188 77.804688 79.871094 77.332031 80.070313 76.757813 C 81.003906 74.339844 81.199219 71.675781 80.882813 69.113281 C 79.824219 68.128906 78.933594 66.953125 78.402344 65.597656 C 77.90625 64.433594 77.679688 63.179688 77.480469 61.9375 C 77.089844 59.515625 76.867188 57.0625 76.828125 54.609375 C 77.089844 54.820313 77.285156 55.097656 77.519531 55.339844 C 78.601563 56.492188 79.792969 57.582031 80.601563 58.960938 C 81 59.648438 81.273438 60.425781 81.316406 61.226563 C 81.375 62.339844 81.332031 63.460938 81.226563 64.5625 C 81.160156 65.707031 81.09375 66.890625 81.511719 67.972656 C 81.824219 68.222656 82.21875 67.914063 82.484375 67.730469 C 83.554688 66.871094 84.304688 65.648438 84.785156 64.378906 C 84.738281 62.59375 84.558594 60.785156 83.96875 59.089844 C 83.746094 58.296875 83.226563 57.640625 82.777344 56.96875 C 81.992188 55.878906 81.074219 54.847656 79.917969 54.148438 C 78.492188 53.535156 77.125 52.753906 75.976563 51.710938 C 75.230469 51.101563 74.976563 50.128906 74.71875 49.242188 C 74.355469 47.84375 74.066406 46.382813 73.292969 45.136719 C 75.078125 45.753906 76.746094 46.730469 78.105469 48.046875 C 79.675781 49.570313 80.765625 51.515625 81.539063 53.546875 C 82.203125 54.789063 83.070313 55.914063 83.992188 56.972656 C 84.160156 57.179688 84.492188 57.128906 84.644531 56.933594 C 84.8125 56.714844 84.839844 56.417969 84.832031 56.152344 C 84.480469 53.382813 83.335938 50.652344 81.328125 48.679688 C 79.226563 46.484375 77.136719 44.28125 75.035156 42.089844 C 73.941406 40.792969 73.855469 38.964844 72.792969 37.644531 C 72.445313 37.140625 71.9375 36.796875 71.519531 36.371094 C 73.019531 36.257813 74.574219 36.398438 75.960938 37.015625 C 76.96875 37.460938 77.882813 38.105469 78.664063 38.878906 C 80.570313 41.328125 81.855469 44.203125 82.757813 47.148438 C 83.125 49.011719 83.816406 50.808594 84.765625 52.453125 C 84.890625 52.683594 85.214844 52.867188 85.421875 52.613281 C 85.816406 52.148438 85.992188 51.441406 85.738281 50.867188 C 85.148438 49.265625 84.476563 47.644531 84.449219 45.914063 C 84.410156 45.027344 84.617188 44.15625 84.691406 43.273438 C 84.890625 41.28125 84.882813 39.273438 84.761719 37.277344 C 85.515625 38.175781 86.238281 39.101563 86.890625 40.078125 C 87.886719 41.566406 88.386719 43.335938 88.597656 45.101563 C 88.542969 46.902344 88.253906 48.714844 87.554688 50.382813 C 87.054688 51.550781 86.480469 52.691406 86.101563 53.902344 C 85.960938 54.335938 86 54.792969 85.960938 55.242188 C 85.851563 56.796875 85.761719 58.355469 85.6875 59.910156 C 85.679688 61.0625 85.550781 62.34375 86.222656 63.351563 C 86.871094 63.394531 87.375 62.90625 87.757813 62.441406 C 88.078125 62.070313 88.140625 61.570313 88.246094 61.109375 C 88.621094 59.175781 88.40625 57.203125 88.546875 55.253906 C 88.5625 54.605469 88.871094 54.03125 89.089844 53.441406 C 89.878906 51.519531 90.871094 49.6875 91.957031 47.921875 C 92.011719 47.976563 92.042969 48.046875 92.050781 48.128906 C 92.289063 49.644531 92.796875 51.101563 93.171875 52.589844 C 93.546875 54.039063 93.855469 55.566406 93.578125 57.058594 C 93.0625 58.902344 91.898438 60.476563 90.628906 61.878906 C 90.253906 62.253906 89.945313 62.71875 89.449219 62.9375 C 87.808594 63.761719 86.3125 64.90625 85.191406 66.371094 C 84.230469 67.332031 83.527344 68.503906 82.964844 69.726563 C 82.316406 71.382813 82.058594 73.164063 81.992188 74.933594 C 81.972656 75.261719 82.394531 75.269531 82.609375 75.152344 C 83.273438 74.804688 83.78125 74.230469 84.28125 73.6875 C 85.53125 72.226563 86.636719 70.628906 87.503906 68.902344 C 87.941406 67.753906 88.65625 66.710938 89.609375 65.929688 C 90.953125 64.816406 92.574219 64.089844 93.90625 62.960938 C 93.875 65.84375 93.453125 68.859375 91.886719 71.351563 C 91.207031 72.296875 90.15625 72.878906 89.136719 73.378906 C 87.582031 74.105469 85.960938 74.679688 84.40625 75.40625 C 83.464844 75.871094 82.488281 76.371094 81.835938 77.214844 C 80.398438 78.890625 78.960938 80.5625 77.519531 82.230469 C 76.699219 83.113281 75.773438 84.007813 75.445313 85.214844 C 75.414063 85.496094 75.292969 85.878906 75.566406 86.089844 C 76.019531 86.5625 76.773438 86.476563 77.304688 86.183594 C 78.410156 85.589844 79.230469 84.527344 79.667969 83.363281 C 80.863281 81.347656 82.589844 79.632813 84.664063 78.53125 C 85.855469 77.878906 87.128906 77.417969 88.367188 76.867188 C 87.847656 77.59375 87.378906 78.355469 87.066406 79.191406 C 86.5 80.601563 86.164063 82.132813 85.273438 83.390625 C 84.921875 83.910156 84.464844 84.339844 84.007813 84.765625 C 82.925781 85.882813 81.539063 86.691406 80.054688 87.144531 C 78.804688 87.535156 77.492188 87.679688 76.191406 87.722656 C 74.433594 87.746094 72.675781 87.738281 70.917969 87.753906 C 69.683594 87.785156 68.425781 87.78125 67.214844 88.070313 C 65.484375 88.636719 63.773438 89.257813 62.085938 89.933594 C 63.160156 90.476563 64.265625 90.964844 65.292969 91.589844 C 66.324219 92.195313 67.300781 92.886719 68.253906 93.605469 C 67.671875 93.945313 67.042969 94.214844 66.449219 94.535156 C 64.449219 93.089844 62.296875 91.851563 60.050781 90.828125 C 57.808594 91.851563 55.65625 93.089844 53.660156 94.535156 C 53.058594 94.226563 52.457031 93.925781 51.851563 93.628906 C 53.71875 92.105469 55.847656 90.933594 58.035156 89.9375 C 56.347656 89.265625 54.640625 88.644531 52.917969 88.082031 C 51.671875 87.773438 50.378906 87.777344 49.109375 87.753906 C 47.488281 87.742188 45.867188 87.746094 44.246094 87.730469 C 42.136719 87.714844 39.972656 87.371094 38.117188 86.316406 C 37.011719 85.714844 36.105469 84.820313 35.242188 83.917969 C 33.859375 82.378906 33.585938 80.242188 32.707031 78.433594 C 32.453125 77.878906 32.074219 77.390625 31.75 76.878906 C 33.324219 77.558594 34.957031 78.148438 36.398438 79.105469 C 37.941406 80.09375 39.21875 81.464844 40.214844 82.996094 C 40.511719 83.378906 40.601563 83.871094 40.867188 84.277344 C 41.40625 85.136719 42.140625 85.945313 43.109375 86.316406 C 43.582031 86.507813 44.175781 86.464844 44.542969 86.089844 C 44.800781 85.890625 44.699219 85.539063 44.671875 85.269531 C 44.480469 84.453125 43.957031 83.757813 43.421875 83.132813 C 42.214844 81.871094 41.121094 80.507813 39.96875 79.191406 C 39.296875 78.410156 38.621094 77.628906 37.949219 76.84375 C 37.445313 76.34375 36.820313 75.988281 36.195313 75.652344 C 34.328125 74.707031 32.308594 74.078125 30.441406 73.113281 C 29.535156 72.621094 28.597656 72.039063 28.074219 71.113281 C 26.625 68.667969 26.222656 65.757813 26.207031 62.960938 C 27.5 64.066406 29.070313 64.777344 30.390625 65.84375 C 31.21875 66.515625 31.914063 67.363281 32.359375 68.339844 C 32.90625 69.667969 33.707031 70.878906 34.527344 72.046875 C 35.152344 72.898438 35.808594 73.738281 36.574219 74.46875 C 36.941406 74.800781 37.335938 75.175781 37.847656 75.253906 C 37.988281 75.207031 38.148438 75.09375 38.113281 74.921875 C 38.039063 73.113281 37.78125 71.289063 37.085938 69.605469 C 36.660156 68.746094 36.214844 67.882813 35.597656 67.140625 C 35.34375 66.816406 35.042969 66.539063 34.785156 66.222656 C 33.675781 64.800781 32.191406 63.707031 30.589844 62.902344 C 30.167969 62.710938 29.902344 62.304688 29.582031 61.992188 C 28.246094 60.542969 27.019531 58.902344 26.507813 56.972656 C 26.25 55.40625 26.605469 53.820313 27.007813 52.308594 C 27.382813 50.859375 27.875 49.433594 28.082031 47.945313 C 28.183594 47.984375 28.25 48.066406 28.300781 48.160156 C 29.542969 50.238281 30.695313 52.394531 31.484375 54.691406 C 31.824219 57.128906 31.316406 59.660156 32.101563 62.035156 C 32.429688 62.703125 33.054688 63.28125 33.808594 63.394531 C 34.21875 62.984375 34.3125 62.378906 34.386719 61.832031 C 34.515625 60.585938 34.371094 59.335938 34.328125 58.089844 C 34.25 57.308594 34.25 56.523438 34.175781 55.746094 C 34.113281 55.050781 34.175781 54.332031 33.925781 53.660156 C 33.539063 52.519531 33 51.4375 32.527344 50.335938 C 31.84375 48.679688 31.558594 46.890625 31.511719 45.113281 C 31.6875 43.585938 32.078125 42.050781 32.835938 40.703125 C 33.476563 39.546875 34.34375 38.550781 35.132813 37.507813 C 35.191406 37.425781 35.269531 37.359375 35.347656 37.292969 C 35.175781 39.765625 35.234375 42.253906 35.585938 44.710938 C 35.878906 46.613281 35.273438 48.503906 34.589844 50.253906 C 34.429688 50.753906 34.125 51.257813 34.289063 51.792969 C 34.386719 52.152344 34.511719 52.589844 34.894531 52.742188 C 35.128906 52.761719 35.285156 52.550781 35.390625 52.371094 C 36.273438 50.800781 36.941406 49.105469 37.304688 47.339844 C 37.375 46.984375 37.5 46.648438 37.613281 46.308594 C 38.355469 44.109375 39.304688 41.964844 40.601563 40.035156 C 40.992188 39.492188 41.328125 38.894531 41.867188 38.476563 Z M 41.867188 38.476563 "/>
</g>
</svg>
